<svg version="1.1" viewBox="0.0 0.0 960.0 720.0" fill="none" stroke="none" stroke-linecap="square" stroke-miterlimit="10" xmlns:xlink="http://www.w3.org/1999/xlink" xmlns="http://www.w3.org/2000/svg"><clipPath id="p.0"><path d="m0 0l960.0 0l0 720.0l-960.0 0l0 -720.0z" clip-rule="nonzero"/></clipPath><g clip-path="url(#p.0)"><path fill="#000000" fill-opacity="0.0" d="m0 0l960.0 0l0 720.0l-960.0 0z" fill-rule="evenodd"/><path fill="#ffffff" d="m262.3727 163.00262l395.74802 0l0 250.17322l-395.74802 0z" fill-rule="evenodd"/><path stroke="#000000" stroke-width="1.0" stroke-linejoin="round" stroke-linecap="butt" d="m262.3727 163.00262l395.74802 0l0 250.17322l-395.74802 0z" fill-rule="evenodd"/><g filter="url(#shadowFilter-p.1)"><use xlink:href="#p.1" transform="matrix(1.0 0.0 0.0 1.0 3.2802952755905785 3.7735477690288572)"/></g><defs><filter id="shadowFilter-p.1" filterUnits="userSpaceOnUse"><feGaussianBlur in="SourceAlpha" stdDeviation="3.0" result="blur"/><feComponentTransfer in="blur" color-interpolation-filters="sRGB"><feFuncR type="linear" slope="0" intercept="0.0"/><feFuncG type="linear" slope="0" intercept="0.0"/><feFuncB type="linear" slope="0" intercept="0.0"/><feFuncA type="linear" slope="0.54" intercept="0"/></feComponentTransfer></filter></defs><g id="p.1"><path fill="#0000ff" fill-opacity="0.1961" d="m391.5346 259.31497l0 0c0 -38.268555 31.022766 -69.29135 69.29132 -69.29135l0 0c18.377197 0 36.00174 7.3003235 48.99637 20.294968c12.994659 12.994644 20.294952 30.619171 20.294952 48.996384l0 0c0 38.268524 -31.022766 69.29132 -69.29132 69.29132l0 0c-38.268555 0 -69.29132 -31.022797 -69.29132 -69.29132z" fill-rule="evenodd"/><path stroke="#000000" stroke-width="1.0" stroke-linejoin="round" stroke-linecap="butt" d="m391.5346 259.31497l0 0c0 -38.268555 31.022766 -69.29135 69.29132 -69.29135l0 0c18.377197 0 36.00174 7.3003235 48.99637 20.294968c12.994659 12.994644 20.294952 30.619171 20.294952 48.996384l0 0c0 38.268524 -31.022766 69.29132 -69.29132 69.29132l0 0c-38.268555 0 -69.29132 -31.022797 -69.29132 -69.29132z" fill-rule="evenodd"/></g><g filter="url(#shadowFilter-p.2)"><use xlink:href="#p.2" transform="matrix(1.0 0.0 0.0 1.0 3.2802952755905785 3.7735477690288572)"/></g><defs><filter id="shadowFilter-p.2" filterUnits="userSpaceOnUse"><feGaussianBlur in="SourceAlpha" stdDeviation="3.0" result="blur"/><feComponentTransfer in="blur" color-interpolation-filters="sRGB"><feFuncR type="linear" slope="0" intercept="0.0"/><feFuncG type="linear" slope="0" intercept="0.0"/><feFuncB type="linear" slope="0" intercept="0.0"/><feFuncA type="linear" slope="0.54" intercept="0"/></feComponentTransfer></filter></defs><g id="p.2"><path fill="#00ff00" fill-opacity="0.2" d="m437.31235 309.61942l0 0c0 -38.268555 31.022766 -69.291336 69.29132 -69.291336l0 0c18.377228 0 36.00174 7.3003235 48.99637 20.294968c12.99469 12.994659 20.294983 30.619171 20.294983 48.99637l0 0c0 38.268555 -31.022766 69.29135 -69.29135 69.29135l0 0c-38.268555 0 -69.29132 -31.022797 -69.29132 -69.29135z" fill-rule="evenodd"/><path stroke="#000000" stroke-width="1.0" stroke-linejoin="round" stroke-linecap="butt" d="m437.31235 309.61942l0 0c0 -38.268555 31.022766 -69.291336 69.29132 -69.291336l0 0c18.377228 0 36.00174 7.3003235 48.99637 20.294968c12.99469 12.994659 20.294983 30.619171 20.294983 48.99637l0 0c0 38.268555 -31.022766 69.29135 -69.29135 69.29135l0 0c-38.268555 0 -69.29132 -31.022797 -69.29132 -69.29135z" fill-rule="evenodd"/></g><g filter="url(#shadowFilter-p.3)"><use xlink:href="#p.3" transform="matrix(1.0 0.0 0.0 1.0 3.2802952755905785 3.7735477690288572)"/></g><defs><filter id="shadowFilter-p.3" filterUnits="userSpaceOnUse"><feGaussianBlur in="SourceAlpha" stdDeviation="3.0" result="blur"/><feComponentTransfer in="blur" color-interpolation-filters="sRGB"><feFuncR type="linear" slope="0" intercept="0.0"/><feFuncG type="linear" slope="0" intercept="0.0"/><feFuncB type="linear" slope="0" intercept="0.0"/><feFuncA type="linear" slope="0.54" intercept="0"/></feComponentTransfer></filter></defs><g id="p.3"><path fill="#ff0000" fill-opacity="0.2" d="m349.2861 309.61942l0 0c0 -38.268555 31.022766 -69.291336 69.29132 -69.291336l0 0c18.377197 0 36.00174 7.3003235 48.99637 20.294968c12.994659 12.994659 20.294983 30.619171 20.294983 48.99637l0 0c0 38.268555 -31.022797 69.29135 -69.29135 69.29135l0 0c-38.268555 0 -69.29132 -31.022797 -69.29132 -69.29135z" fill-rule="evenodd"/><path stroke="#000000" stroke-width="1.0" stroke-linejoin="round" stroke-linecap="butt" d="m349.2861 309.61942l0 0c0 -38.268555 31.022766 -69.291336 69.29132 -69.291336l0 0c18.377197 0 36.00174 7.3003235 48.99637 20.294968c12.994659 12.994659 20.294983 30.619171 20.294983 48.99637l0 0c0 38.268555 -31.022797 69.29135 -69.29135 69.29135l0 0c-38.268555 0 -69.29132 -31.022797 -69.29132 -69.29135z" fill-rule="evenodd"/></g></g></svg>